<svg width="18" height="17" viewBox="0 0 18 17" fill="none" xmlns="http://www.w3.org/2000/svg">
<path d="M12.242 5.81812C13.5199 5.81812 14.7454 6.32574 15.649 7.22933C16.5526 8.13291 17.0602 9.35844 17.0602 10.6363V16.2575H13.8481V10.6363C13.8481 10.2103 13.6789 9.80184 13.3777 9.50064C13.0765 9.19945 12.668 9.03024 12.242 9.03024C11.8161 9.03024 11.4075 9.19945 11.1064 9.50064C10.8052 9.80184 10.6359 10.2103 10.6359 10.6363V16.2575H7.42383V10.6363C7.42383 9.35844 7.93146 8.13291 8.83504 7.22933C9.73863 6.32574 10.9641 5.81812 12.242 5.81812V5.81812Z" stroke="#F4F4F4" stroke-linecap="round" stroke-linejoin="round"/>
<path d="M4.21212 6.62109H1V16.2575H4.21212V6.62109Z" stroke="#F4F4F4" stroke-linecap="round" stroke-linejoin="round"/>
<path d="M2.60606 4.21212C3.49306 4.21212 4.21212 3.49306 4.21212 2.60606C4.21212 1.71906 3.49306 1 2.60606 1C1.71906 1 1 1.71906 1 2.60606C1 3.49306 1.71906 4.21212 2.60606 4.21212Z" stroke="#F4F4F4" stroke-linecap="round" stroke-linejoin="round"/>
</svg>
