<svg width="68" height="68" viewBox="0 0 68 68" fill="none" xmlns="http://www.w3.org/2000/svg">
<path d="M41.6417 14.2323C44.6343 14.8151 47.3847 16.2759 49.5407 18.4278C51.6967 20.5798 53.1603 23.3249 53.7442 26.3118L41.6417 14.2323ZM41.6417 2C47.8592 2.6894 53.6572 5.4684 58.0835 9.88071C62.5098 14.293 65.3015 20.0764 66 26.2812L41.6417 2ZM62.9361 50.6847V59.859C62.9395 60.7107 62.7647 61.5537 62.4229 62.3341C62.081 63.1144 61.5796 63.8149 60.9509 64.3907C60.3221 64.9664 59.5797 65.4048 58.7714 65.6776C57.963 65.9505 57.1065 66.0518 56.2567 65.9752C46.8284 64.9527 37.7719 61.7371 29.8148 56.5869C22.4118 51.8917 16.1354 45.6272 11.4312 38.2383C6.25304 30.2604 3.03059 21.1772 2.02487 11.7247C1.9483 10.8791 2.049 10.0267 2.32054 9.22205C2.59208 8.41736 3.02853 7.67792 3.60208 7.0508C4.17564 6.42368 4.87374 5.92264 5.65194 5.57956C6.43014 5.23648 7.27138 5.05889 8.12212 5.05809H17.3139C18.8009 5.04348 20.2424 5.56903 21.3699 6.53677C22.4973 7.50452 23.2337 8.84842 23.4418 10.318C23.8298 13.254 24.5493 16.1367 25.5866 18.9112C25.9988 20.0058 26.088 21.1954 25.8437 22.339C25.5993 23.4826 25.0316 24.5323 24.2078 25.3638L20.3166 29.2476C24.6783 36.9036 31.0295 43.2427 38.7003 47.5961L42.5915 43.7123C43.4245 42.8901 44.4763 42.3235 45.6221 42.0796C46.7679 41.8357 47.9597 41.9247 49.0564 42.3362C51.8362 43.3715 54.7245 44.0896 57.6661 44.4768C59.1544 44.6864 60.5137 45.4346 61.4854 46.5792C62.4571 47.7239 62.9733 49.185 62.9361 50.6847Z" stroke="#FF967B" stroke-width="3" stroke-linecap="round" stroke-linejoin="round"/>
</svg>
