<svg width="73" height="73" viewBox="0 0 73 73" fill="none" xmlns="http://www.w3.org/2000/svg">
<path d="M51.709 6.08325H21.2923C12.893 6.08325 6.08398 12.8923 6.08398 21.2916V51.7083C6.08398 60.1076 12.893 66.9166 21.2923 66.9166H51.709C60.1083 66.9166 66.9173 60.1076 66.9173 51.7083V21.2916C66.9173 12.8923 60.1083 6.08325 51.709 6.08325Z" stroke="#FF967B" stroke-width="3" stroke-linecap="round" stroke-linejoin="round"/>
<path d="M48.6666 34.5839C49.042 37.1154 48.6096 39.7007 47.4309 41.9722C46.2523 44.2437 44.3874 46.0857 42.1015 47.2363C39.8157 48.3868 37.2252 48.7873 34.6986 48.3807C32.172 47.9742 29.8379 46.7813 28.0284 44.9717C26.2188 43.1622 25.0259 40.8281 24.6194 38.3015C24.2128 35.7749 24.6133 33.1844 25.7638 30.8986C26.9144 28.6127 28.7564 26.7478 31.0279 25.5692C33.2994 24.3905 35.8848 23.9581 38.4162 24.3335C40.9983 24.7164 43.3888 25.9196 45.2347 27.7655C47.0805 29.6113 48.2837 32.0018 48.6666 34.5839Z" stroke="#FF967B" stroke-width="3" stroke-linecap="round" stroke-linejoin="round"/>
<path d="M53.2285 19.7708H53.2581" stroke="#FF967B" stroke-width="3" stroke-linecap="round" stroke-linejoin="round"/>
</svg>
