<svg width="72" height="68" viewBox="0 0 72 68" fill="none" xmlns="http://www.w3.org/2000/svg">
<path d="M49.5992 22.2104C55.0096 22.2104 60.1985 24.3398 64.0242 28.13C67.8499 31.9202 69.9992 37.0608 69.9992 42.421V65.9999H56.3992V42.421C56.3992 40.6343 55.6828 38.9207 54.4075 37.6573C53.1323 36.3939 51.4027 35.6841 49.5992 35.6841C47.7957 35.6841 46.0661 36.3939 44.7909 37.6573C43.5156 38.9207 42.7992 40.6343 42.7992 42.421V65.9999H29.1992V42.421C29.1992 37.0608 31.3485 31.9202 35.1742 28.13C39 24.3398 44.1888 22.2104 49.5992 22.2104V22.2104Z" stroke="#FF967B" stroke-width="3" stroke-linecap="round" stroke-linejoin="round"/>
<path d="M15.6 25.5789H2V65.9999H15.6V25.5789Z" stroke="#FF967B" stroke-width="3" stroke-linecap="round" stroke-linejoin="round"/>
<path d="M8.8 15.4737C12.5555 15.4737 15.6 12.4575 15.6 8.73684C15.6 5.01619 12.5555 2 8.8 2C5.04446 2 2 5.01619 2 8.73684C2 12.4575 5.04446 15.4737 8.8 15.4737Z" stroke="#FF967B" stroke-width="3" stroke-linecap="round" stroke-linejoin="round"/>
</svg>
